<svg width="300" height="300" viewBox="0 0 300 300" xmlns="http://www.w3.org/2000/svg">
  <defs>
    <radialGradient id="petalGradient" cx="50%" cy="50%" r="60%">
      <stop offset="0%" stop-color="#fff0f5" />
      <stop offset="100%" stop-color="#ff69b4" />
    </radialGradient>
    <radialGradient id="centerGradient" cx="50%" cy="50%" r="50%">
      <stop offset="0%" stop-color="#fffacd"/>
      <stop offset="100%" stop-color="#ffb6c1"/>
    </radialGradient>
  </defs>

  <g transform="translate(150,150)">
    <!-- Petals -->
    <g stroke="#d63384" stroke-width="1.5" fill="url(#petalGradient)">
      <path d="M0,-80 C20,-90 40,-60 25,-30 C40,-40 30,0 0,0 C-30,0 -40,-40 -25,-30 C-40,-60 -20,-90 0,-80 Z" transform="rotate(0)"/>
      <path d="M0,-80 C20,-90 40,-60 25,-30 C40,-40 30,0 0,0 C-30,0 -40,-40 -25,-30 C-40,-60 -20,-90 0,-80 Z" transform="rotate(72)"/>
      <path d="M0,-80 C20,-90 40,-60 25,-30 C40,-40 30,0 0,0 C-30,0 -40,-40 -25,-30 C-40,-60 -20,-90 0,-80 Z" transform="rotate(144)"/>
      <path d="M0,-80 C20,-90 40,-60 25,-30 C40,-40 30,0 0,0 C-30,0 -40,-40 -25,-30 C-40,-60 -20,-90 0,-80 Z" transform="rotate(216)"/>
      <path d="M0,-80 C20,-90 40,-60 25,-30 C40,-40 30,0 0,0 C-30,0 -40,-40 -25,-30 C-40,-60 -20,-90 0,-80 Z" transform="rotate(288)"/>
    </g>

    <!-- Stamens -->
    <g stroke="#ff69b4" stroke-width="1">
      <line x1="0" y1="0" x2="0" y2="-50" transform="rotate(0)" />
      <line x1="0" y1="0" x2="0" y2="-50" transform="rotate(30)" />
      <line x1="0" y1="0" x2="0" y2="-50" transform="rotate(60)" />
      <line x1="0" y1="0" x2="0" y2="-50" transform="rotate(90)" />
      <line x1="0" y1="0" x2="0" y2="-50" transform="rotate(120)" />
      <line x1="0" y1="0" x2="0" y2="-50" transform="rotate(150)" />
      <line x1="0" y1="0" x2="0" y2="-50" transform="rotate(180)" />
      <line x1="0" y1="0" x2="0" y2="-50" transform="rotate(210)" />
      <line x1="0" y1="0" x2="0" y2="-50" transform="rotate(240)" />
      <line x1="0" y1="0" x2="0" y2="-50" transform="rotate(270)" />
      <line x1="0" y1="0" x2="0" y2="-50" transform="rotate(300)" />
      <line x1="0" y1="0" x2="0" y2="-50" transform="rotate(330)" />
    </g>

    <!-- Center -->
    <circle cx="0" cy="0" r="12" fill="url(#centerGradient)" stroke="#d63384" stroke-width="2"/>
  </g>
</svg>
